{
  "status": "PASS",
  "packaged": true,
  "resourceSource": "packaged-resources",
  "resourcePaths": {
    "ffmpegPath": "D:\\panda-stage\\.worktrees\\day10\\release\\win-unpacked\\resources\\media\\ffmpeg.exe",
    "ffprobePath": "D:\\panda-stage\\.worktrees\\day10\\release\\win-unpacked\\resources\\media\\ffprobe.exe",
    "audioProbePath": "D:\\panda-stage\\.worktrees\\day10\\release\\win-unpacked\\resources\\probe\\preview-tone.wav",
    "source": "packaged-resources"
  },
  "configHash": "c47d81e308ca9f1c2a4b0fbd88efc7d0dc6a1e43ee407df73cd9b957e6e377db",
  "subtitles": [
    {
      "frameIndex": 0,
      "timeMs": 0,
      "text": null
    },
    {
      "frameIndex": 24,
      "timeMs": 1000,
      "text": "风吹过竹林，新的旅程准备出发。"
    },
    {
      "frameIndex": 48,
      "timeMs": 2000,
      "text": "每一个故事，都从勇敢迈出第一步开始。"
    },
    {
      "frameIndex": 71,
      "timeMs": 2958,
      "text": null
    }
  ],
  "cancellation": {
    "jobId": "f692fc1b-67cd-45c9-ae12-c557e267d240",
    "cancellationAccepted": true,
    "status": "cancelled",
    "error": "导出已取消并完成资源清理；可以立即重新导出。",
    "activeJobAfter": null,
    "activeProcessesAfter": 0
  },
  "cleanup": {
    "frameJobEntries": 0,
    "activeJobId": null,
    "activeProcesses": 0
  },
  "mediaValidation": {
    "ffmpegVersion": "ffmpeg version N-92722-gf22fcd4483 Copyright (c) 2000-2018 the FFmpeg developers",
    "ffmpegExecutable": "D:\\panda-stage\\.worktrees\\day10\\release\\win-unpacked\\resources\\media\\ffmpeg.exe",
    "audioEncoderVersion": "ffmpeg version N-92722-gf22fcd4483 Copyright (c) 2000-2018 the FFmpeg developers"
  },
  "runs": [
    {
      "index": 1,
      "jobId": "f5a479de-b6c1-452f-8c6f-df8c9cb8e5d9",
      "outputPath": "D:\\panda-stage\\.worktrees\\day10\\docs\\evidence\\gate-a\\打包输出 中文 空格 🐼\\三次 导出 🎬\\熊猫片场 Gate A 第 1 次 🐼.mp4",
      "configHash": "c47d81e308ca9f1c2a4b0fbd88efc7d0dc6a1e43ee407df73cd9b957e6e377db",
      "probe": {
        "codecName": "h264",
        "pixelFormat": "yuv420p",
        "width": 1920,
        "height": 1080,
        "fps": 24,
        "frameCount": 72,
        "durationSeconds": 3,
        "hasAudio": true,
        "audioCodecName": "aac",
        "audioSampleRate": 48000,
        "audioChannels": 1,
        "audioStartSeconds": 0,
        "audioDurationSeconds": 3.4,
        "formatDurationSeconds": 3.4,
        "raw": {
          "streams": [
            {
              "index": 0,
              "codec_name": "h264",
              "codec_long_name": "H.264 / AVC / MPEG-4 AVC / MPEG-4 part 10",
              "profile": "High",
              "codec_type": "video",
              "codec_tag_string": "avc1",
              "codec_tag": "0x31637661",
              "width": 1920,
              "height": 1080,
              "coded_width": 1920,
              "coded_height": 1088,
              "closed_captions": 0,
              "film_grain": 0,
              "has_b_frames": 2,
              "pix_fmt": "yuv420p",
              "level": 40,
              "chroma_location": "left",
              "field_order": "progressive",
              "refs": 4,
              "is_avc": "true",
              "nal_length_size": "4",
              "id": "0x1",
              "r_frame_rate": "24/1",
              "avg_frame_rate": "24/1",
              "time_base": "1/12288",
              "start_pts": 0,
              "start_time": "0.000000",
              "duration_ts": 36864,
              "duration": "3.000000",
              "bit_rate": "314562",
              "bits_per_raw_sample": "8",
              "nb_frames": "72",
              "nb_read_frames": "72",
              "extradata_size": 43,
              "disposition": {
                "default": 1,
                "dub": 0,
                "original": 0,
                "comment": 0,
                "lyrics": 0,
                "karaoke": 0,
                "forced": 0,
                "hearing_impaired": 0,
                "visual_impaired": 0,
                "clean_effects": 0,
                "attached_pic": 0,
                "timed_thumbnails": 0,
                "captions": 0,
                "descriptions": 0,
                "metadata": 0,
                "dependent": 0,
                "still_image": 0
              },
              "tags": {
                "language": "und",
                "handler_name": "VideoHandler",
                "vendor_id": "[0][0][0][0]"
              }
            },
            {
              "index": 1,
              "codec_name": "aac",
              "codec_long_name": "AAC (Advanced Audio Coding)",
              "profile": "LC",
              "codec_type": "audio",
              "codec_tag_string": "mp4a",
              "codec_tag": "0x6134706d",
              "sample_fmt": "fltp",
              "sample_rate": "48000",
              "channels": 1,
              "channel_layout": "mono",
              "bits_per_sample": 0,
              "initial_padding": 0,
              "id": "0x2",
              "r_frame_rate": "0/0",
              "avg_frame_rate": "0/0",
              "time_base": "1/48000",
              "start_pts": 0,
              "start_time": "0.000000",
              "duration_ts": 163200,
              "duration": "3.400000",
              "bit_rate": "153348",
              "nb_frames": "161",
              "nb_read_frames": "160",
              "extradata_size": 5,
              "disposition": {
                "default": 1,
                "dub": 0,
                "original": 0,
                "comment": 0,
                "lyrics": 0,
                "karaoke": 0,
                "forced": 0,
                "hearing_impaired": 0,
                "visual_impaired": 0,
                "clean_effects": 0,
                "attached_pic": 0,
                "timed_thumbnails": 0,
                "captions": 0,
                "descriptions": 0,
                "metadata": 0,
                "dependent": 0,
                "still_image": 0
              },
              "tags": {
                "language": "und",
                "handler_name": "SoundHandler",
                "vendor_id": "[0][0][0][0]"
              }
            }
          ],
          "format": {
            "filename": "D:\\panda-stage\\.worktrees\\day10\\docs\\evidence\\gate-a\\打包输出 中文 空格 🐼\\三次 导出 🎬\\.熊猫片场 Gate A 第 1 次 🐼.panda-stage-f5a479de-b6c1-452f-8c6f-df8c9cb8e5d9-ee046bd2-e9d1-4ab0-9c75-7b6b27914d33.mp4",
            "nb_streams": 2,
            "nb_programs": 0,
            "format_name": "mov,mp4,m4a,3gp,3g2,mj2",
            "format_long_name": "QuickTime / MOV",
            "start_time": "0.000000",
            "duration": "3.400000",
            "size": "187040",
            "bit_rate": "440094",
            "probe_score": 100,
            "tags": {
              "major_brand": "isom",
              "minor_version": "512",
              "compatible_brands": "isomiso2avc1mp41",
              "encoder": "Lavf58.24.101"
            }
          }
        }
      },
      "leadingSilenceEndSeconds": 0.400646,
      "elapsedMs": 147110
    },
    {
      "index": 2,
      "jobId": "5fff2edc-a0cf-413f-a387-a9708643eff3",
      "outputPath": "D:\\panda-stage\\.worktrees\\day10\\docs\\evidence\\gate-a\\打包输出 中文 空格 🐼\\三次 导出 🎬\\熊猫片场 Gate A 第 2 次 🐼.mp4",
      "configHash": "c47d81e308ca9f1c2a4b0fbd88efc7d0dc6a1e43ee407df73cd9b957e6e377db",
      "probe": {
        "codecName": "h264",
        "pixelFormat": "yuv420p",
        "width": 1920,
        "height": 1080,
        "fps": 24,
        "frameCount": 72,
        "durationSeconds": 3,
        "hasAudio": true,
        "audioCodecName": "aac",
        "audioSampleRate": 48000,
        "audioChannels": 1,
        "audioStartSeconds": 0,
        "audioDurationSeconds": 3.4,
        "formatDurationSeconds": 3.4,
        "raw": {
          "streams": [
            {
              "index": 0,
              "codec_name": "h264",
              "codec_long_name": "H.264 / AVC / MPEG-4 AVC / MPEG-4 part 10",
              "profile": "High",
              "codec_type": "video",
              "codec_tag_string": "avc1",
              "codec_tag": "0x31637661",
              "width": 1920,
              "height": 1080,
              "coded_width": 1920,
              "coded_height": 1088,
              "closed_captions": 0,
              "film_grain": 0,
              "has_b_frames": 2,
              "pix_fmt": "yuv420p",
              "level": 40,
              "chroma_location": "left",
              "field_order": "progressive",
              "refs": 4,
              "is_avc": "true",
              "nal_length_size": "4",
              "id": "0x1",
              "r_frame_rate": "24/1",
              "avg_frame_rate": "24/1",
              "time_base": "1/12288",
              "start_pts": 0,
              "start_time": "0.000000",
              "duration_ts": 36864,
              "duration": "3.000000",
              "bit_rate": "314562",
              "bits_per_raw_sample": "8",
              "nb_frames": "72",
              "nb_read_frames": "72",
              "extradata_size": 43,
              "disposition": {
                "default": 1,
                "dub": 0,
                "original": 0,
                "comment": 0,
                "lyrics": 0,
                "karaoke": 0,
                "forced": 0,
                "hearing_impaired": 0,
                "visual_impaired": 0,
                "clean_effects": 0,
                "attached_pic": 0,
                "timed_thumbnails": 0,
                "captions": 0,
                "descriptions": 0,
                "metadata": 0,
                "dependent": 0,
                "still_image": 0
              },
              "tags": {
                "language": "und",
                "handler_name": "VideoHandler",
                "vendor_id": "[0][0][0][0]"
              }
            },
            {
              "index": 1,
              "codec_name": "aac",
              "codec_long_name": "AAC (Advanced Audio Coding)",
              "profile": "LC",
              "codec_type": "audio",
              "codec_tag_string": "mp4a",
              "codec_tag": "0x6134706d",
              "sample_fmt": "fltp",
              "sample_rate": "48000",
              "channels": 1,
              "channel_layout": "mono",
              "bits_per_sample": 0,
              "initial_padding": 0,
              "id": "0x2",
              "r_frame_rate": "0/0",
              "avg_frame_rate": "0/0",
              "time_base": "1/48000",
              "start_pts": 0,
              "start_time": "0.000000",
              "duration_ts": 163200,
              "duration": "3.400000",
              "bit_rate": "153348",
              "nb_frames": "161",
              "nb_read_frames": "160",
              "extradata_size": 5,
              "disposition": {
                "default": 1,
                "dub": 0,
                "original": 0,
                "comment": 0,
                "lyrics": 0,
                "karaoke": 0,
                "forced": 0,
                "hearing_impaired": 0,
                "visual_impaired": 0,
                "clean_effects": 0,
                "attached_pic": 0,
                "timed_thumbnails": 0,
                "captions": 0,
                "descriptions": 0,
                "metadata": 0,
                "dependent": 0,
                "still_image": 0
              },
              "tags": {
                "language": "und",
                "handler_name": "SoundHandler",
                "vendor_id": "[0][0][0][0]"
              }
            }
          ],
          "format": {
            "filename": "D:\\panda-stage\\.worktrees\\day10\\docs\\evidence\\gate-a\\打包输出 中文 空格 🐼\\三次 导出 🎬\\.熊猫片场 Gate A 第 2 次 🐼.panda-stage-5fff2edc-a0cf-413f-a387-a9708643eff3-25d628a9-96d8-4ccd-ab01-ad3191b24318.mp4",
            "nb_streams": 2,
            "nb_programs": 0,
            "format_name": "mov,mp4,m4a,3gp,3g2,mj2",
            "format_long_name": "QuickTime / MOV",
            "start_time": "0.000000",
            "duration": "3.400000",
            "size": "187040",
            "bit_rate": "440094",
            "probe_score": 100,
            "tags": {
              "major_brand": "isom",
              "minor_version": "512",
              "compatible_brands": "isomiso2avc1mp41",
              "encoder": "Lavf58.24.101"
            }
          }
        }
      },
      "leadingSilenceEndSeconds": 0.400646,
      "elapsedMs": 146065
    },
    {
      "index": 3,
      "jobId": "3bda33c7-37f5-4575-af02-064e4e400b18",
      "outputPath": "D:\\panda-stage\\.worktrees\\day10\\docs\\evidence\\gate-a\\打包输出 中文 空格 🐼\\三次 导出 🎬\\熊猫片场 Gate A 第 3 次 🐼.mp4",
      "configHash": "c47d81e308ca9f1c2a4b0fbd88efc7d0dc6a1e43ee407df73cd9b957e6e377db",
      "probe": {
        "codecName": "h264",
        "pixelFormat": "yuv420p",
        "width": 1920,
        "height": 1080,
        "fps": 24,
        "frameCount": 72,
        "durationSeconds": 3,
        "hasAudio": true,
        "audioCodecName": "aac",
        "audioSampleRate": 48000,
        "audioChannels": 1,
        "audioStartSeconds": 0,
        "audioDurationSeconds": 3.4,
        "formatDurationSeconds": 3.4,
        "raw": {
          "streams": [
            {
              "index": 0,
              "codec_name": "h264",
              "codec_long_name": "H.264 / AVC / MPEG-4 AVC / MPEG-4 part 10",
              "profile": "High",
              "codec_type": "video",
              "codec_tag_string": "avc1",
              "codec_tag": "0x31637661",
              "width": 1920,
              "height": 1080,
              "coded_width": 1920,
              "coded_height": 1088,
              "closed_captions": 0,
              "film_grain": 0,
              "has_b_frames": 2,
              "pix_fmt": "yuv420p",
              "level": 40,
              "chroma_location": "left",
              "field_order": "progressive",
              "refs": 4,
              "is_avc": "true",
              "nal_length_size": "4",
              "id": "0x1",
              "r_frame_rate": "24/1",
              "avg_frame_rate": "24/1",
              "time_base": "1/12288",
              "start_pts": 0,
              "start_time": "0.000000",
              "duration_ts": 36864,
              "duration": "3.000000",
              "bit_rate": "314562",
              "bits_per_raw_sample": "8",
              "nb_frames": "72",
              "nb_read_frames": "72",
              "extradata_size": 43,
              "disposition": {
                "default": 1,
                "dub": 0,
                "original": 0,
                "comment": 0,
                "lyrics": 0,
                "karaoke": 0,
                "forced": 0,
                "hearing_impaired": 0,
                "visual_impaired": 0,
                "clean_effects": 0,
                "attached_pic": 0,
                "timed_thumbnails": 0,
                "captions": 0,
                "descriptions": 0,
                "metadata": 0,
                "dependent": 0,
                "still_image": 0
              },
              "tags": {
                "language": "und",
                "handler_name": "VideoHandler",
                "vendor_id": "[0][0][0][0]"
              }
            },
            {
              "index": 1,
              "codec_name": "aac",
              "codec_long_name": "AAC (Advanced Audio Coding)",
              "profile": "LC",
              "codec_type": "audio",
              "codec_tag_string": "mp4a",
              "codec_tag": "0x6134706d",
              "sample_fmt": "fltp",
              "sample_rate": "48000",
              "channels": 1,
              "channel_layout": "mono",
              "bits_per_sample": 0,
              "initial_padding": 0,
              "id": "0x2",
              "r_frame_rate": "0/0",
              "avg_frame_rate": "0/0",
              "time_base": "1/48000",
              "start_pts": 0,
              "start_time": "0.000000",
              "duration_ts": 163200,
              "duration": "3.400000",
              "bit_rate": "153348",
              "nb_frames": "161",
              "nb_read_frames": "160",
              "extradata_size": 5,
              "disposition": {
                "default": 1,
                "dub": 0,
                "original": 0,
                "comment": 0,
                "lyrics": 0,
                "karaoke": 0,
                "forced": 0,
                "hearing_impaired": 0,
                "visual_impaired": 0,
                "clean_effects": 0,
                "attached_pic": 0,
                "timed_thumbnails": 0,
                "captions": 0,
                "descriptions": 0,
                "metadata": 0,
                "dependent": 0,
                "still_image": 0
              },
              "tags": {
                "language": "und",
                "handler_name": "SoundHandler",
                "vendor_id": "[0][0][0][0]"
              }
            }
          ],
          "format": {
            "filename": "D:\\panda-stage\\.worktrees\\day10\\docs\\evidence\\gate-a\\打包输出 中文 空格 🐼\\三次 导出 🎬\\.熊猫片场 Gate A 第 3 次 🐼.panda-stage-3bda33c7-37f5-4575-af02-064e4e400b18-c4f01679-dc1c-40b4-8a71-7af852a1bbf0.mp4",
            "nb_streams": 2,
            "nb_programs": 0,
            "format_name": "mov,mp4,m4a,3gp,3g2,mj2",
            "format_long_name": "QuickTime / MOV",
            "start_time": "0.000000",
            "duration": "3.400000",
            "size": "187040",
            "bit_rate": "440094",
            "probe_score": 100,
            "tags": {
              "major_brand": "isom",
              "minor_version": "512",
              "compatible_brands": "isomiso2avc1mp41",
              "encoder": "Lavf58.24.101"
            }
          }
        }
      },
      "leadingSilenceEndSeconds": 0.400646,
      "elapsedMs": 146107
    }
  ]
}
